<?xml version="1.0" encoding="UTF-8" standalone="no" ?>
<!DOCTYPE svg PUBLIC "-//W3C//DTD SVG 1.1//EN" "http://www.w3.org/Graphics/SVG/1.1/DTD/svg11.dtd">
<svg xmlns="http://www.w3.org/2000/svg" xmlns:xlink="http://www.w3.org/1999/xlink" version="1.1" width="1080"
    height="1080" viewBox="0 0 1080 1080" xml:space="preserve">

    <g transform="matrix(1 0 0 1 540 540)" id="5f67b574-e875-4028-b637-c63d69fb99c2">
    </g>
    <g transform="matrix(1 0 0 1 563.84 476.25)">
        <path
            style="stroke: none; stroke-width: 1; stroke-dasharray: none; stroke-linecap: butt; stroke-dashoffset: 0; stroke-linejoin: miter; stroke-miterlimit: 4; fill: rgb(243,186,2); fill-rule: nonzero; opacity: 1;"
            vector-effect="non-scaling-stroke" transform=" translate(-527.28, -432.49)"
            d="M 722.4 470.72 C 722.534250481934 501.75190220967977 715.2375713075411 532.365037392471 701.12 559.9999999999999 C 645.7556849931007 580.4683954313538 587.0091943177383 590.2413790926895 528 588.8 C 468.5022978112128 590.5206749961185 409.23169595060324 580.7418405919849 353.43999999999994 559.9999999999999 C 339.3967705733833 532.5094261863035 332.10221419192857 502.06973602309023 332.15999999999997 471.2 L 332.15999999999997 465.59999999999997 C 335.1838640805843 360.01343595882105 421.65014503465494 275.98798711523114 527.28 275.98798711523114 C 632.909854965345 275.98798711523114 719.3761359194156 360.01343595882105 722.4 465.59999999999997 z"
            stroke-linecap="round" />
    </g>
    <g transform="matrix(1 0 0 1 563.92 611.28)">
        <path
            style="stroke: none; stroke-width: 1; stroke-dasharray: none; stroke-linecap: butt; stroke-dashoffset: 0; stroke-linejoin: miter; stroke-miterlimit: 4; fill: rgb(243,186,2); fill-rule: nonzero; opacity: 1;"
            vector-effect="non-scaling-stroke" transform=" translate(-527.36, -567.52)"
            d="M 142.4 567.52 C 142.4 644.1329404965277 314.75246270513776 706.24 527.36 706.24 C 739.9675372948622 706.24 912.3199999999999 644.1329404965277 912.3199999999999 567.52 C 912.3199999999999 490.9070595034723 739.9675372948622 428.79999999999995 527.3599999999999 428.79999999999995 C 314.75246270513776 428.79999999999995 142.39999999999998 490.9070595034723 142.39999999999998 567.52 Z"
            stroke-linecap="round" />
    </g>
    <g transform="matrix(1 0 0 1 563.76 572.74)">
        <path
            style="stroke: none; stroke-width: 1; stroke-dasharray: none; stroke-linecap: butt; stroke-dashoffset: 0; stroke-linejoin: miter; stroke-miterlimit: 4; fill: rgb(210,2,20); fill-rule: nonzero; opacity: 1;"
            vector-effect="non-scaling-stroke" transform=" translate(-527.2, -528.98)"
            d="M 722.4 469.12 L 722.4 470.72 C 722.4 502.72 722.4 549.28 687.8399999999999 565.6 C 640.8 588.48 578.3999999999999 588.8000000000001 527.8399999999999 588.8000000000001 C 479.2685495191772 589.4276759289115 430.84944579989116 583.2339084898482 383.9999999999999 570.4 C 362.85052445991084 564.342679942526 346.29460828848477 547.8471868228205 340.15999999999997 526.72 C 334.7541201768146 508.54441929750027 332.00566459228247 489.6824692075742 332 470.72 L 331.99999999999994 474.56 C 371.5199999999999 498.4 443.99999999999994 509.28 527.1999999999999 509.28 C 610.3999999999999 509.28 682.8799999999999 493.11999999999995 722.3999999999999 469.12 z"
            stroke-linecap="round" />
    </g>
    <g transform="matrix(1 0 0 1 562.66 475.28)">
        <path
            style="stroke: none; stroke-width: 1; stroke-dasharray: none; stroke-linecap: butt; stroke-dashoffset: 0; stroke-linejoin: miter; stroke-miterlimit: 4; fill: rgb(0,0,0); fill-rule: nonzero; opacity: 1;"
            vector-effect="non-scaling-stroke" transform=" translate(-496.16, -437.51)"
            d="M 357.12 592.96 L 352.8 592.96 C 322.7751028691038 584.5589697265797 299.4533353618397 560.8718481591495 291.52 530.72 C 286.8499218376498 513.0181047002516 284.4837153051076 494.7875589154378 284.48 476.48 L 284.47999999999996 470.24 C 286.3495515876602 408.1027350284834 315.64315172057496 349.9842323647805 364.4799999999999 311.52000000000004 C 368.62614572096226 306.4920541930556 375.4075065227337 304.4812209672096 381.6242879801845 306.43631474688357 C 387.8410694376353 308.3914085265575 392.250847252563 313.92170365511436 392.7728616953599 320.4177227667346 C 393.2948761381567 326.9137418783548 389.82480257843605 333.0772550061169 384 336 C 342.6483091908245 368.74024207651865 317.9711306312997 418.1532148216004 316.64 470.8800000000001 L 316.64 474.56 C 316.47396721444096 490.7518460193066 318.4647966657675 506.89370643546766 322.56 522.56 C 327.67067850281813 541.7993263569559 342.5842950621528 556.895558629262 361.76 562.2399999999999 C 370.22686923442404 564.6464522931848 375.1598481145293 573.4400233403289 372.8 581.9199999999998 C 370.6019168632055 588.6715032214415 364.2172952452679 593.166798034071 357.12 592.9599999999998 z M 496 610.08 C 471.72681063230505 610.0915499378212 447.4731733953304 608.7025751180828 423.35999999999996 605.9200000000002 L 413.28000000000003 604.6400000000001 L 407.20000000000005 603.6800000000001 L 397.28000000000003 602.08 C 388.44344400270734 600.6219682604468 382.4619682604467 592.2765559972927 383.92 583.44 C 385.3780317395533 574.6034440027073 393.7234440027073 568.6219682604467 402.56 570.08 L 411.84 571.5200000000001 L 417.59999999999997 572.32 L 427.03999999999996 573.6 C 449.9313586133854 576.2498366344129 472.9557877323441 577.5853603652109 496.0000000000001 577.6 C 528.1651365167664 577.7320501263587 560.2824934097057 575.1091326467686 592.0000000000001 569.7599999999999 L 604.64 567.68 C 622.2972816400719 566.050325446675 639.5529191992305 561.4524282914132 655.68 554.0799999999999 C 676.16 542.7199999999999 676 504.79999999999995 676 479.67999999999995 L 676 470.4 C 675.5050436438855 453.0551272977429 672.541949996611 435.8691841435508 667.2 419.35999999999996 C 665.9200000000001 415.84 664.8000000000001 412.31999999999994 663.36 408.79999999999995 C 661.1770862669041 400.91400285199416 665.2958926643666 392.6517846883163 672.9073005062478 389.64836429665513 C 680.5187083481288 386.64494390499397 689.1696549593948 389.8682865571194 692.96 397.11999999999995 C 694.5600000000001 401.11999999999995 696 405.28 697.44 409.43999999999994 C 703.7018316366663 428.8536714784653 707.2027708019751 449.0513974321702 707.84 469.44 L 707.84 480 C 707.84 512 707.84 561.6 671.36 582.08 C 651.495141665365 591.8021814016071 630.0239753362135 597.8206143878086 608 599.84 L 595.84 601.76 C 562.8533453996482 607.3373035568488 529.4548061601013 610.1205151601446 496 610.0800000000002 z M 656.8 382.08 C 651.5644218031574 382.071384156395 646.66427652382 379.5017957782059 643.68 375.2 C 610.37072041523 326.3383141625647 555.1348146674346 297.01481056947716 496.0000000000001 296.79999999999995 C 484.12385080686124 296.758485569722 472.2748963043605 297.93801950209763 460.6399999999999 300.32 C 454.7960926482626 302.1542401120891 448.41786018960266 300.491296664337 444.2134476446395 296.0372417616396 C 440.0090350996762 291.58318685894227 438.7163451462618 285.11973709187004 440.8842433021134 279.3912200490097 C 443.0521414579651 273.66270300614934 448.3001470168235 269.6745119548936 454.3999999999999 269.11999999999995 C 537.5834353005897 252.33238204766482 622.7200932284297 287.08075132043507 670.3999999999997 357.2799999999998 C 675.2835165230143 364.5394629122731 673.4303822187221 374.37532960428587 666.2399999999999 379.35999999999996 C 663.4564263993442 381.2341673256766 660.1540441879574 382.18570118319485 656.7999999999998 382.08 z M 409.12 316.96 C 401.7465632735119 316.91630242893586 395.3577898027423 311.8392604349715 393.64992050930755 304.6662094025458 C 391.9420512158729 297.4931583701201 395.3573965916404 290.0818023650754 401.92 286.71999999999997 L 412.8 281.76 C 420.9296893001098 278.3209093438178 430.3087186788468 282.1154784817801 433.76 290.24 C 437.0931529650314 298.3257079918802 433.316354688638 307.58955282076965 425.28 311.04 Q 420.79999999999995 312.96000000000004 416.15999999999997 315.36 C 413.9658765892814 316.42271451729187 411.5579171695953 316.96997802176594 409.11999999999995 316.96000000000004 z"
            stroke-linecap="round" />
    </g>
    <g transform="matrix(1 0 0 1 561.78 620.42)">
        <path
            style="stroke: none; stroke-width: 1; stroke-dasharray: none; stroke-linecap: butt; stroke-dashoffset: 0; stroke-linejoin: miter; stroke-miterlimit: 4; fill: rgb(0,0,0); fill-rule: nonzero; opacity: 1;"
            vector-effect="non-scaling-stroke" transform=" translate(-495.28, -582.67)"
            d="M 233.28 690.4 C 231.63465979717887 690.6299157159787 229.96534020282112 690.6299157159787 228.32 690.4 C 142.07999999999998 661.4399999999999 94.56 620 94.56 573.6 C 94.56 515.6800000000001 170.88 465.12 298.4 438.24 C 306.643730979743 437.2342632808436 314.28649776876614 442.70296427993287 315.9952842955541 450.8301197122168 C 317.704070822342 458.9572751445008 312.9107351248449 467.04074640998664 304.96 469.44 C 196.47999999999996 492.15999999999997 126.39999999999998 533.44 126.39999999999998 573.6 C 126.39999999999998 604.32 168.32 636.64 238.39999999999998 660.1600000000001 C 245.64636376024356 662.784979875371 249.9915771893042 670.2029767727083 248.7372425996282 677.8073802226191 C 247.48290800995215 685.4117836725301 240.98552561103577 691.0413111549432 233.27999999999997 691.2 z M 280.8 704 L 274.40000000000003 704 C 265.56344400270734 701.8792265606497 260.1192265606498 692.9965559972927 262.24 684.16 C 264.3607734393503 675.3234440027073 273.24344400270735 669.8792265606497 282.08000000000004 672 L 284.48 672 C 292.95715923271746 674.0578308643431 298.22363144845644 682.5268875355991 296.32 691.04 C 294.87769339745955 698.4956419054457 288.3933403948786 703.910410907601 280.8 704 z M 496 727.52 C 438.0900991040751 727.773015111732 380.26926527886684 722.9546122929646 323.19999999999993 713.12 C 318.9020973201891 712.5318771113535 315.02720204027236 710.223831097536 312.46320081389683 706.7247235415412 C 309.89919958752125 703.2256159855464 308.86587455955737 698.8353848733151 309.59999999999997 694.5600000000001 C 311.0684661291128 686.217110990462 318.78520018900457 680.4646365094518 327.2 681.44 C 382.9360549127765 691.159746145977 439.4233153451802 695.92502214454 496.00000000000034 695.6800000000001 C 599.84 695.6800000000001 700 679.6800000000001 770.72 653.1200000000001 C 776.1867801881074 650.1169304695976 782.9003898974499 650.5644694031606 787.9201924331553 654.2665897053714 C 792.9399949688607 657.9687100075822 795.3508379074021 664.2504838615281 794.0967448787526 670.3604235424912 C 792.8426518501032 676.4703632234543 788.1522546114552 681.2945750938137 782.08 682.7200000000001 C 706.24 711.6800000000002 604.6400000000001 727.5200000000001 496.00000000000006 727.5200000000001 z M 812.8 667.36 C 806.902500148798 667.3442635832815 801.4918138027889 664.0855547612532 798.7199999999999 658.88 C 794.6136199017697 651.059408974595 797.6216686665135 641.3906808022042 805.4399999999999 637.28 C 843.52 617.4399999999999 864.4799999999999 594.56 864.4799999999999 573.28 C 864.4799999999999 532.8 794.3999999999999 491.84 685.9199999999998 469.12 C 677.969264875155 466.72074640998665 673.1759291776578 458.6372751445008 674.8847157044457 450.51011971221686 C 676.5935022312336 442.38296427993293 684.2362690202567 436.91426328084367 692.4799999999998 437.92 C 820.16 464 896 514.88 896 572.8 C 896 596.9599999999999 882.72 632.64 819.84 665.5999999999999 C 817.639476428053 666.6649429909255 815.2427880886243 667.2641150757827 812.8000000000001 667.3599999999999 z"
            stroke-linecap="round" />
    </g>
    <g transform="matrix(1 0 0 1 561.94 529.92)">
        <path
            style="stroke: none; stroke-width: 1; stroke-dasharray: none; stroke-linecap: butt; stroke-dashoffset: 0; stroke-linejoin: miter; stroke-miterlimit: 4; fill: rgb(0,0,0); fill-rule: nonzero; opacity: 1;"
            vector-effect="non-scaling-stroke" transform=" translate(-495.44, -492.16)"
            d="M 628.96 514.72 C 620.1234440027073 515.8245694996616 612.0645694996616 509.5565559972927 610.96 500.72 C 609.8554305003385 491.88344400270734 616.1234440027073 483.8245694996616 624.96 482.72 C 642.5055939815134 478.3705385097054 659.5158360452763 472.0923103662976 675.68 464 C 678.0161190862144 458.1200002791299 683.5978251052517 454.1689050072272 689.92 453.92 C 698.7565559972927 453.92 705.92 461.0834440027073 705.92 469.92 L 705.92 483.52000000000004 L 698.4 488.16 C 677.7109700665494 499.8023594936017 655.5343084208708 508.57613582429497 632.48 514.24 C 631.3264872954954 514.5216358544875 630.1468041935741 514.6825017320223 628.96 514.72 z M 496 530.4 C 412.32 530.4 336 514.4 292.64 488.15999999999997 L 284.96 483.52 L 284.96 469.76 C 285.5914012422566 462.63413632586503 290.87632793618866 456.7933210472612 297.9037641464966 455.45476176910734 C 304.9312003568046 454.1162024909534 311.9932371439524 457.6052152017325 315.2 464 C 354.88 485.12 422.88 497.92 495.52 497.92 C 517.4886049253613 497.97838871331805 539.4431592555034 496.80320575647346 561.2799999999999 494.40000000000003 L 578.56 492.16 C 587.2538096271414 490.919035998642 595.323012670967 496.9173816241406 596.64 505.6 C 597.880964001358 514.2938096271415 591.8826183758594 522.3630126709671 583.1999999999999 523.6800000000001 L 564.8 526.08 C 541.9589967642 528.7333949539759 518.9935098382895 530.1754139004865 496 530.4000000000001 z"
            stroke-linecap="round" />
    </g>
    <g transform="matrix(1 0 0 1 465.36 413.99)">
        <path
            style="stroke: none; stroke-width: 1; stroke-dasharray: none; stroke-linecap: butt; stroke-dashoffset: 0; stroke-linejoin: miter; stroke-miterlimit: 4; fill: rgb(0,0,0); fill-rule: nonzero; opacity: 1;"
            vector-effect="non-scaling-stroke" transform=" translate(-401.96, -370.23)"
            d="M 379.52 405.44 C 378.6194720832401 405.58920857770914 377.7005279167598 405.58920857770914 376.79999999999995 405.44 C 371.1891540841853 403.8798137263226 367.8502231313745 398.1254859140316 369.28 392.48 C 378.1721094844741 367.8095536250963 396.3005995661402 347.5584238819693 419.8399999999999 336 C 422.35806669662526 334.7468046689563 425.2763579196374 334.56696686369196 427.92924231552206 335.5015056849695 C 430.5821267114067 336.436044506247 432.7433644253837 338.4052618234053 433.91999999999996 340.96 C 436.4486330375973 346.26384430424866 434.2365029061609 352.614798552566 428.96 355.2 C 410.98158043493635 364.07603090241975 396.9915528040226 379.37940806603154 389.76 398.08 C 388.347023356485 402.5258263869894 384.18431415337307 405.5177736267261 379.52 405.44 z"
            stroke-linecap="round" />
    </g>
    <g transform="matrix(1 0 0 1 433.97 465.52)">
        <path
            style="stroke: none; stroke-width: 1; stroke-dasharray: none; stroke-linecap: butt; stroke-dashoffset: 0; stroke-linejoin: miter; stroke-miterlimit: 4; fill: rgb(0,0,0); fill-rule: nonzero; opacity: 1;"
            vector-effect="non-scaling-stroke" transform=" translate(-370.56, -421.76)"
            d="M 370.56 421.76 M 360.32 421.76 C 360.32 427.41539583826733 364.90460416173266 432 370.56 432 C 376.21539583826734 432 380.8 427.41539583826733 380.8 421.76 C 380.8 416.10460416173265 376.21539583826734 411.52 370.56 411.52 C 364.90460416173266 411.52 360.32 416.10460416173265 360.32 421.76 Z"
            stroke-linecap="round" />
    </g>
    <g transform="matrix(1 0 0 1 266.68 627.87)">
        <path
            style="stroke: none; stroke-width: 1; stroke-dasharray: none; stroke-linecap: butt; stroke-dashoffset: 0; stroke-linejoin: miter; stroke-miterlimit: 4; fill: rgb(0,0,0); fill-rule: nonzero; opacity: 1;"
            vector-effect="non-scaling-stroke" transform=" translate(-200.18, -590.11)"
            d="M 226.08 621.44 L 224 621.44 C 198.87071004686618 613.9429990338677 177.60574773995404 597.034201512199 164.64 574.24 C 162.1076687432369 569.1122712423445 164.0464386151103 562.8996129505229 169.04569385048381 560.1222489308709 C 174.04494908585733 557.344884911219 180.3441034168843 558.9809186458738 183.35999999999999 563.84 C 193.20534182476754 581.3075701644962 209.2511504329708 594.4411501640931 228.31999999999996 600.64 C 234.0490602035169 601.9189964737556 237.73060379110828 607.5121107702886 236.64 613.28 C 235.50257631767226 618.1614060701779 231.09046488815912 621.5707649020744 226.07999999999998 621.4399999999999 z"
            stroke-linecap="round" />
    </g>
</svg>